<?xml version="1.0" standalone="no"?>
<!DOCTYPE svg PUBLIC "-//W3C//DTD SVG 20010904//EN"
 "http://www.w3.org/TR/2001/REC-SVG-20010904/DTD/svg10.dtd">
<svg version="1.0" xmlns="http://www.w3.org/2000/svg"
 width="209.000000pt" height="26.000000pt" viewBox="0 0 209.000000 26.000000"
 preserveAspectRatio="xMidYMid meet">

<g transform="translate(0.000000,26.000000) scale(0.100000,-0.100000)"
fill="#000000" stroke="none">
<path d="M64 230 c-12 -5 -25 -15 -29 -22 -6 -10 -5 -11 6 0 27 25 39 14 39
-35 1 -33 8 -61 25 -88 31 -50 31 -55 1 -55 -36 0 -68 31 -75 76 l-7 39 -5
-37 c-3 -21 -3 -36 -1 -34 1 2 16 -9 32 -25 26 -26 35 -29 95 -29 60 0 69 3
95 29 16 16 31 27 33 25 2 -2 1 11 -2 29 l-5 32 -7 -35 c-9 -40 -41 -70 -75
-70 -30 0 -30 5 1 59 16 28 25 58 25 87 0 45 12 55 38 34 7 -5 6 -3 -2 6 -7 8
-31 17 -52 19 -22 1 -29 0 -16 -2 12 -2 22 -6 22 -8 0 -11 -50 -115 -55 -115
-4 0 -55 106 -55 116 0 1 12 5 28 7 27 4 27 4 -3 5 -16 0 -40 -3 -51 -8z"/>
<path d="M22 170 c0 -14 2 -19 5 -12 2 6 2 18 0 25 -3 6 -5 1 -5 -13z"/>
<path d="M261 174 c0 -11 3 -14 6 -6 3 7 2 16 -1 19 -3 4 -6 -2 -5 -13z"/>
<path d="M392 174 c-50 -35 -12 -94 60 -94 52 0 53 28 1 32 -30 2 -38 7 -38
23 0 16 8 21 38 23 24 2 37 8 37 18 0 19 -69 19 -98 -2z"/>
<path d="M520 135 c0 -48 2 -55 20 -55 13 0 20 7 20 20 0 15 7 20 25 20 18 0
25 -5 25 -20 0 -13 7 -20 20 -20 18 0 20 7 20 55 0 48 -2 55 -20 55 -13 0 -20
-7 -20 -20 0 -15 -7 -20 -25 -20 -18 0 -25 5 -25 20 0 13 -7 20 -20 20 -18 0
-20 -7 -20 -55z"/>
<path d="M693 135 c-19 -49 -19 -55 -5 -55 10 0 24 16 33 38 l16 37 16 -38
c11 -25 22 -37 36 -37 20 0 20 1 -2 52 -18 41 -29 54 -48 56 -21 2 -27 -5 -46
-53z"/>
<path d="M830 135 c0 -42 3 -55 15 -55 9 0 15 9 15 25 0 14 4 25 8 25 5 0 19
-11 32 -25 13 -14 32 -25 42 -25 15 0 18 8 18 55 0 42 -3 55 -15 55 -9 0 -15
-9 -15 -25 0 -14 -3 -25 -6 -25 -3 0 -19 11 -36 25 -47 39 -58 34 -58 -30z"/>
<path d="M1012 174 c-52 -36 -14 -94 61 -94 46 0 47 1 47 30 0 27 -3 30 -32
30 -31 -1 -32 -1 -14 -15 19 -14 18 -15 -12 -15 -27 0 -32 4 -32 25 0 23 4 25
45 25 33 0 45 4 45 15 0 21 -78 20 -108 -1z"/>
<path d="M1163 135 c-17 -43 -18 -55 -7 -55 7 0 22 17 33 37 l19 38 15 -38
c11 -25 22 -37 36 -37 20 0 20 1 -2 52 -18 41 -29 54 -48 56 -21 2 -27 -5 -46
-53z"/>
<path d="M1310 135 c0 -42 3 -55 15 -55 9 0 15 9 15 25 0 14 4 25 8 25 5 0 19
-11 32 -25 13 -14 32 -25 42 -25 15 0 18 8 18 55 0 42 -3 55 -15 55 -9 0 -15
-9 -15 -25 0 -14 -3 -25 -6 -25 -3 0 -19 11 -36 25 -47 39 -58 34 -58 -30z"/>
<path d="M1523 135 c-19 -49 -19 -55 -5 -55 10 0 24 16 33 38 l16 37 16 -38
c11 -25 22 -37 36 -37 20 0 20 1 -2 52 -18 41 -29 54 -48 56 -21 2 -27 -5 -46
-53z"/>
<path d="M1650 151 c0 -49 21 -71 65 -71 44 0 65 22 65 71 0 53 -27 55 -32 2
-3 -33 -6 -38 -28 -38 -22 0 -25 5 -28 38 -3 29 -7 37 -23 37 -16 0 -19 -7
-19 -39z"/>
<path d="M1810 175 c0 -8 9 -15 20 -15 17 0 20 -7 20 -40 0 -33 3 -40 20 -40
17 0 20 7 20 40 0 33 3 40 20 40 11 0 20 7 20 15 0 12 -13 15 -60 15 -47 0
-60 -3 -60 -15z"/>
<path d="M1960 170 c-41 -41 -9 -100 55 -100 39 0 75 28 75 60 0 32 -36 60
-75 60 -22 0 -43 -8 -55 -20z m85 -40 c0 -20 -6 -26 -28 -28 -18 -2 -29 2 -33
12 -11 28 4 48 33 44 22 -2 28 -8 28 -28z"/>
<path d="M168 3 c7 -3 16 -2 19 1 4 3 -2 6 -13 5 -11 0 -14 -3 -6 -6z"/>
</g>
</svg>
